<svg width="26" height="29" viewBox="0 0 26 29" fill="none" xmlns="http://www.w3.org/2000/svg">
<path id="Vector" d="M2.78488 28.346C2.0845 28.346 1.48493 28.0966 0.986172 27.5979C0.487416 27.0991 0.238037 26.4995 0.238037 25.7992C0.238037 25.0988 0.487416 24.4992 0.986172 24.0005C1.48493 23.5017 2.0845 23.2523 2.78488 23.2523H23.1596C23.86 23.2523 24.4596 23.5017 24.9583 24.0005C25.4571 24.4992 25.7065 25.0988 25.7065 25.7992C25.7065 26.4995 25.4571 27.0991 24.9583 27.5979C24.4596 28.0966 23.86 28.346 23.1596 28.346H2.78488ZM4.0583 20.7055C3.6975 20.7055 3.39506 20.5834 3.15099 20.3394C2.90692 20.0953 2.78488 19.7929 2.78488 19.4321V16.4713C2.78488 16.3016 2.81672 16.1371 2.88039 15.9779C2.94406 15.8187 3.03957 15.6755 3.16691 15.5481L14.3093 4.40568L19.0847 9.18101L7.94224 20.3235C7.8149 20.4508 7.67164 20.5463 7.51246 20.61C7.35328 20.6736 7.1888 20.7055 7.01901 20.7055H4.0583ZM5.33172 18.1586H6.4778L15.5191 9.18101L14.3093 7.97126L5.33172 17.0126V18.1586ZM20.5173 7.78024L15.7419 3.00491L18.0341 0.712754C18.2676 0.458069 18.5647 0.336033 18.9255 0.346645C19.2863 0.357257 19.5834 0.479293 19.8169 0.712754L22.8094 3.70529C23.0429 3.93876 23.1596 4.23058 23.1596 4.58077C23.1596 4.93096 23.0429 5.2334 22.8094 5.48809L20.5173 7.78024Z" fill="white"/>
</svg>
